<svg width="20" height="20" viewBox="0 0 20 20" fill="none" xmlns="http://www.w3.org/2000/svg">
<path d="M8.58333 17.5H4.16667C3.72464 17.5 3.30072 17.3244 2.98816 17.0118C2.67559 16.6993 2.5 16.2754 2.5 15.8333V4.16667C2.5 3.72464 2.67559 3.30072 2.98816 2.98816C3.30072 2.67559 3.72464 2.5 4.16667 2.5H15.8333C16.2754 2.5 16.6993 2.67559 17.0118 2.98816C17.3244 3.30072 17.5 3.72464 17.5 4.16667V12.5L14.9167 9.91667C14.6031 9.60931 14.1809 9.43813 13.7418 9.44032C13.3027 9.4425 12.8822 9.61788 12.5717 9.92833L5 17.5" stroke="#1F8CD0" stroke-width="1.5" stroke-linecap="round" stroke-linejoin="round"/>
<path d="M11.6665 16.25L14.1665 13.75L16.6665 16.25" stroke="#1F8CD0" stroke-width="1.5" stroke-linecap="round" stroke-linejoin="round"/>
<path d="M14.1665 18.3333V13.75" stroke="#1F8CD0" stroke-width="1.5" stroke-linecap="round" stroke-linejoin="round"/>
<path d="M7.50016 9.16668C8.42064 9.16668 9.16683 8.42049 9.16683 7.50001C9.16683 6.57954 8.42064 5.83334 7.50016 5.83334C6.57969 5.83334 5.8335 6.57954 5.8335 7.50001C5.8335 8.42049 6.57969 9.16668 7.50016 9.16668Z" stroke="#1F8CD0" stroke-width="1.5" stroke-linecap="round" stroke-linejoin="round"/>
</svg>
